<?xml version="1.0" encoding="UTF-8" standalone="no"?>
<!DOCTYPE svg PUBLIC "-//W3C//DTD SVG 1.1//EN" "http://www.w3.org/Graphics/SVG/1.1/DTD/svg11.dtd">
<svg xmlns="http://www.w3.org/2000/svg" version="1.1" viewBox="0.00 0.00 512.00 512.00">
<path fill="#434343" d="
  M 206.06 0.00
  L 306.05 0.00
  C 322.33 1.35 335.58 11.43 339.53 27.09
  C 340.40 30.56 340.84 37.20 340.84 47.00
  C 340.82 78.46 340.82 109.92 340.84 141.37
  C 340.85 147.33 341.13 151.39 341.70 153.56
  C 344.50 164.29 354.41 171.21 365.50 171.20
  C 401.07 171.17 436.63 171.17 472.20 171.19
  C 479.19 171.19 485.44 171.78 491.02 174.51
  C 503.79 180.76 510.79 191.28 512.00 206.08
  L 512.00 306.03
  C 510.55 325.11 495.79 340.81 476.25 340.81
  C 439.08 340.82 401.92 340.91 364.75 341.06
  C 351.34 341.12 340.84 351.48 340.84 364.50
  C 340.83 398.33 340.83 432.16 340.82 465.99
  C 340.82 475.70 340.33 482.32 339.35 485.87
  C 335.19 500.85 321.63 510.96 305.93 512.00
  L 205.94 512.00
  C 192.61 510.83 182.69 504.84 176.19 494.03
  C 173.15 488.97 171.19 482.24 171.18 476.50
  C 171.17 441.19 171.17 405.89 171.16 370.58
  C 171.16 364.68 170.88 360.65 170.32 358.49
  C 167.55 347.89 158.01 340.98 147.00 340.96
  C 112.23 340.88 77.45 340.83 42.68 340.82
  C 31.81 340.81 23.96 340.17 15.91 334.59
  C 6.20 327.87 0.89 318.31 0.00 305.91
  L 0.00 205.97
  C 1.21 189.60 11.98 175.71 28.10 172.12
  C 30.85 171.51 35.47 171.20 41.98 171.19
  C 76.91 171.16 111.83 171.14 146.75 171.13
  C 160.42 171.12 170.91 161.02 170.96 147.25
  C 171.09 113.19 171.16 79.13 171.18 45.07
  C 171.19 36.00 171.63 29.83 172.51 26.54
  C 176.60 11.30 190.26 1.04 206.06 0.00
  Z
  M 205.26 112.23
  C 204.84 113.14 205.11 114.22 205.91 114.84
  C 206.56 115.34 207.43 115.59 208.50 115.60
  C 240.22 115.69 271.94 115.72 303.65 115.69
  C 307.70 115.69 307.17 112.35 305.50 110.02
  C 290.55 89.15 275.58 68.28 260.61 47.41
  C 257.20 42.66 254.51 43.07 251.18 47.71
  C 236.25 68.52 221.33 89.33 206.42 110.16
  C 206.02 110.71 205.63 111.40 205.26 112.23
  Z
  M 314.49 256.00
  C 314.49 223.70 288.30 197.51 256.00 197.51
  C 223.70 197.51 197.51 223.70 197.51 256.00
  C 197.51 288.30 223.70 314.49 256.00 314.49
  C 288.30 314.49 314.49 288.30 314.49 256.00
  Z
  M 400.36 205.42
  C 397.50 204.31 396.30 206.54 396.30 209.00
  C 396.29 240.55 396.29 272.11 396.31 303.66
  C 396.31 306.69 398.92 307.69 401.26 306.02
  C 422.26 290.98 443.25 275.93 464.23 260.87
  C 467.50 258.52 470.09 255.34 465.75 252.22
  C 443.98 236.59 422.40 221.12 401.03 205.79
  C 400.82 205.64 400.60 205.51 400.36 205.42
  Z
  M 111.49 205.57
  C 111.11 205.74 110.40 206.19 109.55 206.80
  C 88.64 221.79 67.45 237.01 45.96 252.44
  C 42.80 254.71 43.90 258.14 46.65 260.12
  C 68.01 275.42 89.37 290.72 110.74 306.02
  C 113.92 308.30 115.70 305.87 115.70 302.75
  C 115.72 271.28 115.66 239.81 115.51 208.34
  C 115.50 205.62 113.89 204.47 111.49 205.57
  Z
  M 306.70 399.88
  C 307.07 399.08 306.94 398.13 306.36 397.46
  C 305.78 396.78 304.88 396.44 303.67 396.43
  C 271.90 396.32 240.12 396.28 208.35 396.31
  C 204.92 396.31 204.48 399.21 206.17 401.56
  C 221.20 422.51 236.22 443.45 251.25 464.40
  C 254.86 469.43 257.46 468.98 260.97 464.09
  C 275.85 443.35 290.72 422.60 305.58 401.84
  C 305.97 401.29 306.35 400.63 306.70 399.88
  Z"
/>
</svg>
