<?xml version="1.0" encoding="UTF-8" standalone="no"?>
<!DOCTYPE svg PUBLIC "-//W3C//DTD SVG 1.1//EN" "http://www.w3.org/Graphics/SVG/1.1/DTD/svg11.dtd">
<svg xmlns="http://www.w3.org/2000/svg" version="1.1" viewBox="0.00 0.00 1024.00 1024.00">
<g fill="#ffffffc7">
<path d="
  M 614.64 325.63
  L 704.33 415.41
  Q 704.66 415.74 705.03 415.37
  C 736.56 383.62 768.30 352.05 800.05 320.52
  C 804.92 315.69 810.39 310.93 815.47 306.14
  A 1.17 1.16 -30.7 0 1 817.37 306.62
  Q 837.20 366.37 814.57 424.56
  Q 808.78 439.45 800.64 451.96
  Q 779.58 484.36 747.43 501.41
  Q 719.23 516.37 687.67 520.11
  Q 687.25 520.16 686.92 519.91
  Q 668.39 506.08 645.11 506.64
  C 639.85 506.77 633.25 507.63 627.33 506.72
  C 599.16 502.38 569.95 487.10 549.72 466.77
  C 512.81 429.68 496.58 382.00 503.92 330.22
  C 512.69 268.31 565.55 220.99 624.70 207.76
  Q 675.77 196.34 726.24 212.12
  A 0.53 0.52 31.2 0 1 726.46 212.99
  L 614.64 324.89
  Q 614.27 325.26 614.64 325.63
  Z"
/>
<path d="
  M 324.01 312.79
  Q 325.02 312.50 324.90 311.45
  Q 320.68 276.72 317.59 243.02
  Q 317.23 239.15 317.87 237.52
  C 319.51 233.37 324.26 232.75 328.75 232.74
  Q 348.77 232.68 368.79 232.70
  Q 373.40 232.71 375.46 233.97
  C 378.64 235.93 379.59 238.85 379.13 242.69
  C 376.48 264.95 372.73 287.29 369.95 304.75
  Q 369.31 308.77 369.18 312.02
  Q 369.16 312.57 369.67 312.77
  Q 383.07 317.95 393.60 327.66
  A 0.71 0.71 0.0 0 0 394.63 327.59
  Q 395.31 326.77 396.31 326.07
  Q 421.95 308.11 447.57 290.11
  C 453.62 285.85 457.93 285.88 461.67 292.47
  Q 465.94 300.02 470.17 307.58
  Q 471.02 309.10 471.58 310.74
  Q 471.75 311.22 471.58 311.70
  C 468.79 319.57 466.31 327.02 466.31 335.50
  Q 466.31 339.54 466.32 343.57
  Q 466.32 344.08 465.85 344.28
  Q 447.09 352.36 428.04 359.64
  Q 420.83 362.39 414.01 365.95
  A 0.97 0.96 -18.1 0 0 413.49 366.96
  C 414.97 376.30 415.45 389.03 412.33 398.18
  A 0.83 0.82 23.3 0 0 412.73 399.17
  L 444.71 416.10
  A 0.65 0.65 0.0 0 1 444.87 417.14
  L 408.46 453.08
  Q 408.25 453.29 408.04 453.09
  L 389.31 434.87
  Q 388.95 434.52 388.53 434.80
  Q 378.31 441.63 366.48 445.02
  A 1.03 1.01 79.7 0 0 365.75 446.09
  C 366.96 461.06 368.91 474.65 370.45 485.01
  C 370.96 488.47 369.46 488.50 367.55 490.43
  Q 350.30 507.83 332.68 524.84
  Q 332.32 525.19 331.81 525.20
  Q 322.58 525.37 319.48 525.29
  C 312.34 525.09 311.85 519.89 312.81 513.99
  Q 314.89 501.17 317.04 488.36
  C 319.32 474.76 321.34 459.89 323.71 445.65
  A 0.49 0.49 0.0 0 0 323.38 445.10
  C 314.89 442.36 304.74 437.09 298.57 430.47
  A 0.98 0.98 0.0 0 0 297.25 430.36
  Q 271.93 449.86 246.98 470.01
  C 244.43 472.07 241.44 474.69 238.24 475.07
  C 233.43 475.63 230.68 473.18 228.46 468.92
  C 225.98 464.17 223.72 459.09 221.27 454.56
  Q 213.79 440.77 210.27 432.51
  C 206.74 424.25 215.11 421.09 221.72 418.11
  Q 249.68 405.47 277.15 392.04
  A 0.74 0.74 0.0 0 0 277.56 391.25
  Q 275.16 376.61 278.67 362.25
  A 1.16 1.16 0.0 0 0 278.15 360.99
  Q 258.36 348.71 238.12 337.42
  C 230.92 333.41 223.76 328.92 216.53 324.73
  C 211.11 321.59 207.82 317.81 211.84 311.85
  C 218.89 301.41 226.02 291.09 232.92 280.55
  C 238.37 272.23 243.73 273.51 250.30 279.49
  C 259.74 288.09 270.35 296.86 279.07 304.69
  Q 290.06 314.55 300.99 324.14
  Q 301.58 324.66 302.18 324.17
  Q 311.94 316.33 324.01 312.79
  Z
  M 345.8230 422.5620
  A 43.39 43.27 88.9 0 0 388.2520 378.3493
  A 43.39 43.27 88.9 0 0 344.1570 335.7980
  A 43.39 43.27 88.9 0 0 301.7280 380.0107
  A 43.39 43.27 88.9 0 0 345.8230 422.5620
  Z"
/>
<path d="
  M 309.19 819.94
  C 274.35 861.97 205.74 860.48 173.97 815.32
  Q 153.20 785.79 159.44 749.00
  C 162.79 729.25 173.37 712.69 188.59 700.36
  C 230.26 666.59 270.23 630.65 310.57 595.31
  C 361.49 550.70 410.96 504.57 461.17 459.18
  C 465.48 455.28 469.17 451.64 472.55 446.65
  C 477.85 438.84 483.13 431.10 488.58 423.39
  A 0.75 0.75 0.0 0 1 489.91 423.59
  C 505.57 470.66 543.86 506.85 589.48 524.23
  A 0.42 0.42 0.0 0 1 589.57 524.97
  L 559.61 545.41
  Q 559.26 545.65 558.86 545.52
  Q 545.61 541.37 536.26 540.84
  C 515.62 539.69 497.89 548.01 484.54 562.79
  C 478.63 569.34 472.88 575.85 466.76 582.31
  C 450.95 599.02 447.25 622.89 452.07 644.89
  Q 452.18 645.39 451.83 645.77
  C 444.14 654.05 435.07 665.80 430.18 671.68
  C 390.78 718.96 349.92 770.80 309.19 819.94
  Z
  M 290.27 762.68
  A 46.26 46.26 0.0 0 0 244.01 716.42
  A 46.26 46.26 0.0 0 0 197.75 762.68
  A 46.26 46.26 0.0 0 0 244.01 808.94
  A 46.26 46.26 0.0 0 0 290.27 762.68
  Z"
/>
<path  d="
  M 760.10 646.20
  A 2.37 2.37 0.0 0 0 759.63 649.11
  Q 767.40 662.88 770.92 678.01
  C 772.13 683.17 775.36 684.52 780.57 684.51
  Q 790.36 684.50 800.14 684.53
  Q 806.41 684.54 809.09 686.01
  C 813.75 688.56 814.73 692.48 814.75 697.88
  Q 814.80 720.17 814.76 742.44
  Q 814.75 747.03 813.40 749.29
  C 811.17 752.99 807.81 754.21 803.34 754.22
  Q 791.30 754.24 779.24 754.22
  Q 772.14 754.20 770.27 760.92
  Q 766.30 775.12 759.93 787.98
  A 2.59 2.58 39.7 0 0 760.19 790.69
  C 765.36 797.48 772.67 803.50 778.98 809.27
  C 788.22 817.71 782.60 823.92 775.19 830.54
  C 764.86 839.76 755.25 849.96 745.54 859.83
  C 739.08 866.39 733.79 868.09 727.17 860.87
  Q 718.19 851.07 708.88 841.72
  A 1.63 1.62 -35.9 0 0 707.00 841.42
  C 695.83 847.10 684.71 851.67 671.99 854.77
  Q 667.18 855.94 667.31 861.25
  Q 667.57 872.76 667.42 884.25
  C 667.36 889.17 664.11 894.31 658.75 894.34
  Q 623.01 894.55 606.50 894.48
  C 600.41 894.46 596.80 888.47 596.89 883.00
  Q 597.06 872.25 597.28 861.49
  C 597.38 856.60 595.52 855.73 591.06 854.37
  Q 575.02 849.49 559.98 842.05
  Q 556.94 840.55 554.72 842.95
  Q 546.71 851.58 538.74 860.23
  C 532.57 866.93 526.44 867.43 520.08 860.92
  Q 503.78 844.26 487.13 827.97
  C 481.10 822.07 478.19 816.67 485.25 809.98
  Q 494.47 801.23 503.80 791.95
  A 4.17 4.17 0.0 0 0 504.70 787.34
  C 501.15 779.08 497.20 770.79 494.63 761.56
  C 493.33 756.87 491.77 754.34 486.72 754.29
  Q 475.73 754.16 464.72 754.24
  Q 458.54 754.28 455.95 752.87
  Q 451.07 750.21 451.08 743.49
  Q 451.13 709.78 451.28 694.49
  C 451.33 690.01 454.86 686.37 458.99 685.10
  Q 460.72 684.56 464.85 684.57
  Q 475.05 684.59 485.25 684.51
  C 489.60 684.48 493.10 683.48 493.99 678.88
  Q 497.12 662.84 505.23 649.17
  A 1.90 1.88 -51.7 0 0 504.97 646.90
  Q 494.25 635.78 483.57 625.91
  C 478.83 621.53 481.18 615.67 485.06 611.87
  Q 504.91 592.45 521.94 573.94
  C 524.87 570.75 529.40 570.31 533.13 571.88
  Q 535.19 572.74 538.74 576.40
  Q 547.13 585.06 555.65 593.56
  A 1.54 1.53 58.4 0 0 557.19 593.93
  C 558.73 593.44 560.27 592.93 561.73 592.08
  Q 575.90 583.87 593.55 578.63
  Q 597.08 577.58 597.07 573.50
  Q 597.05 561.65 597.25 549.80
  C 597.36 542.89 599.77 538.78 606.96 538.74
  Q 630.84 538.60 654.70 538.62
  Q 660.57 538.62 663.08 539.96
  Q 667.62 542.39 667.64 548.25
  Q 667.69 560.72 667.69 573.18
  C 667.70 575.86 669.35 578.11 671.75 578.75
  C 684.25 582.11 695.88 587.47 707.16 593.60
  A 1.74 1.74 0.0 0 0 709.22 593.30
  Q 718.13 584.34 726.37 575.54
  C 729.99 571.68 733.72 570.12 738.66 571.80
  Q 741.05 572.62 744.05 575.73
  Q 760.21 592.49 776.93 608.68
  C 783.12 614.67 787.14 620.27 779.91 627.40
  Q 769.92 637.24 760.10 646.20
  Z
  M 592.92 655.67
  C 555.39 681.69 548.80 732.27 580.18 766.32
  Q 603.44 791.55 638.26 788.85
  Q 660.97 787.09 678.27 772.51
  C 691.18 761.64 701.98 743.93 704.21 726.50
  Q 708.15 695.76 689.00 671.46
  Q 670.38 647.81 641.77 644.32
  Q 614.16 640.94 592.92 655.67
  Z"
/>
</g>
</svg>
