<?xml version="1.0" encoding="utf-8" standalone="no"?>
<!doctype svg public "-//w3c//dtd svg 1.1//en" "http://www.w3.org/graphics/svg/1.1/dtd/svg11.dtd">
<svg xmlns="http://www.w3.org/2000/svg" version="1.1" viewbox="0.00 0.00 500.00 500.00">
<path fill="#ffffff" d="
  m 344.28 202.51
  c 347.02 199.37 350.63 196.57 353.15 194.04
  c 357.21 189.99 361.27 186.01 365.16 181.78
  q 367.10 179.67 370.11 177.11
  q 374.91 173.03 385.90 161.10
  c 389.61 157.07 394.09 153.58 398.17 149.67
  a 0.54 0.54 0.0 0 1 399.05 149.88
  c 407.47 173.44 404.62 201.83 389.54 222.33
  c 386.01 227.14 383.40 231.39 378.29 235.74
  c 373.87 239.50 367.15 243.79 361.73 246.39
  q 349.60 252.19 336.21 254.01
  q 335.70 254.08 335.29 253.78
  c 328.08 248.49 320.54 246.82 311.65 247.40
  c 302.13 248.02 293.36 243.75 284.94 239.96
  q 281.74 238.52 279.42 236.92
  c 248.44 215.63 235.46 174.68 252.70 140.63
  c 254.63 136.81 257.65 132.95 260.33 129.19
  c 264.73 123.04 270.67 117.81 277.04 113.80
  c 280.39 111.69 284.49 108.76 288.35 107.07
  q 320.66 92.87 354.48 103.55
  a 0.32 0.32 0.0 0 1 354.60 104.08
  l 300.55 158.19
  q 300.29 158.45 300.51 158.75
  c 305.80 165.71 313.01 172.46 319.58 178.23
  c 321.55 179.96 323.21 182.30 324.82 183.90
  q 329.93 188.99 335.01 194.10
  c 337.09 196.19 341.18 199.19 343.66 202.48
  q 343.96 202.88 344.28 202.51
  z"
/>
<path fill="#ffffff" d="
  m 158.25 152.07
  l 155.16 117.05
  a 2.82 2.82 0.0 0 1 157.95 113.98
  l 181.56 113.85
  a 3.68 3.67 4.2 0 1 185.21 118.08
  l 180.07 151.60
  q 179.91 152.61 180.83 153.05
  c 184.75 154.92 188.65 156.62 192.00 159.65
  q 192.40 160.01 192.85 159.70
  q 204.91 151.33 216.84 142.81
  c 219.86 140.65 222.53 137.95 225.21 142.59
  q 227.71 146.93 230.11 151.34
  a 1.80 1.79 -46.9 0 1 230.16 152.95
  q 226.94 159.89 227.78 167.54
  q 227.84 168.09 227.33 168.30
  l 202.16 178.51
  a 0.63 0.61 -16.1 0 0 201.78 179.18
  q 202.98 186.84 201.30 194.41
  q 201.18 194.98 201.70 195.24
  l 217.35 202.93
  q 217.87 203.18 217.46 203.59
  l 199.73 220.78
  q 199.33 221.17 198.92 220.78
  l 190.36 212.66
  q 189.95 212.27 189.48 212.58
  q 184.44 215.87 178.64 217.53
  a 0.49 0.49 0.0 0 0 178.29 218.07
  l 180.74 237.57
  q 180.80 238.06 180.45 238.42
  l 162.71 256.15
  q 162.32 256.54 161.77 256.58
  c 159.17 256.78 152.08 257.53 152.62 252.99
  q 153.14 248.64 154.94 238.97
  c 156.17 232.38 156.59 225.04 157.74 218.05
  q 157.82 217.53 157.33 217.34
  q 150.96 214.89 145.83 210.37
  q 145.44 210.03 145.01 210.33
  q 139.93 213.87 135.25 218.02
  c 134.50 218.69 133.21 219.30 132.29 220.03
  q 125.54 225.44 118.78 230.84
  c 113.15 235.32 110.65 226.60 108.82 223.02
  c 107.12 219.68 103.89 214.78 102.49 210.74
  c 101.55 208.02 103.29 206.56 105.67 205.44
  c 111.96 202.48 117.42 199.68 124.49 196.76
  q 129.94 194.52 135.11 191.65
  q 135.54 191.41 135.49 190.92
  q 134.72 184.18 135.82 177.47
  a 1.64 1.63 20.0 0 0 135.04 175.80
  l 103.98 157.31
  a 3.07 3.07 0.0 0 1 103.06 152.88
  q 108.50 145.34 113.73 137.16
  q 115.18 134.90 116.84 134.46
  c 120.47 133.51 127.40 140.93 130.14 143.29
  c 134.41 146.96 140.58 153.48 146.65 157.78
  q 147.06 158.07 147.52 157.85
  l 157.84 152.81
  q 158.30 152.58 158.25 152.07
  z
  m 189.60 185.11
  a 21.13 21.13 0.0 0 0 168.47 163.98
  a 21.13 21.13 0.0 0 0 147.34 185.11
  a 21.13 21.13 0.0 0 0 168.47 206.24
  a 21.13 21.13 0.0 0 0 189.60 185.11
  z"
/>
<path fill="#ffffff" d="
  m 229.51 282.44
  c 220.73 290.55 217.87 302.71 220.46 314.35
  q 220.57 314.83 220.30 315.23
  q 218.26 318.33 215.85 321.07
  c 204.33 334.20 193.51 348.04 182.59 361.68
  q 182.29 362.06 179.53 364.93
  c 178.09 366.43 177.07 368.42 175.95 369.81
  c 171.06 375.86 166.83 381.11 161.08 387.69
  c 158.42 390.72 155.70 394.83 153.78 397.26
  c 148.87 403.46 144.75 406.79 139.49 409.68
  c 117.44 421.83 89.28 412.77 80.11 389.54
  c 74.10 374.31 76.69 358.17 87.75 345.94
  c 89.16 344.37 91.28 343.11 93.02 341.48
  q 94.49 340.09 95.06 339.62
  q 114.57 323.40 133.55 306.56
  q 133.61 306.51 135.81 304.29
  c 137.08 303.01 138.74 302.15 139.92 301.09
  c 145.80 295.83 151.87 290.86 157.47 285.30
  c 159.71 283.07 162.66 281.04 164.62 279.33
  q 169.24 275.30 173.83 271.24
  c 176.87 268.55 180.29 264.60 183.92 261.65
  c 189.13 257.41 193.26 253.89 197.42 249.50
  c 203.96 242.60 211.30 237.43 217.39 231.39
  c 220.79 228.02 223.96 225.27 227.15 222.11
  c 231.58 217.72 234.87 212.26 238.54 206.97
  q 239.12 206.14 239.36 207.13
  q 240.53 212.07 243.23 216.98
  c 253.38 235.47 268.36 248.00 287.63 256.18
  a 0.24 0.24 0.0 0 1 287.67 256.60
  l 273.56 265.94
  q 273.12 266.23 272.61 266.09
  c 262.43 263.31 253.58 262.63 244.34 268.17
  c 238.76 271.52 234.51 277.82 229.51 282.44
  z
  m 141.66 372.36
  a 22.61 22.61 0.0 0 0 119.05 349.75
  a 22.61 22.61 0.0 0 0 96.44 372.36
  a 22.61 22.61 0.0 0 0 119.05 394.97
  a 22.61 22.61 0.0 0 0 141.66 372.36
  z"
/>
<path fill="#ffffff" d="
  m 246.76 316.61
  a 0.46 0.45 35.9 0 0 246.68 316.12
  l 236.05 305.22
  a 3.68 3.68 0.0 0 1 235.95 300.20
  q 244.33 290.82 253.53 281.74
  c 255.34 279.95 257.89 277.65 260.78 279.86
  c 264.61 282.78 267.78 286.20 270.94 289.40
  a 1.94 1.93 -38.1 0 0 273.31 289.68
  q 281.36 284.76 290.38 282.07
  a 1.68 1.66 82.0 0 0 291.57 280.48
  l 291.64 267.26
  a 4.43 4.42 -90.0 0 1 296.03 262.86
  q 308.63 262.79 320.50 262.76
  c 324.28 262.75 325.71 265.00 325.75 268.64
  q 325.82 274.58 325.77 280.53
  a 1.07 1.07 0.0 0 0 326.15 281.37
  q 327.19 282.26 328.49 282.61
  q 337.28 284.98 345.08 289.78
  a 0.87 0.86 -51.9 0 0 346.16 289.64
  c 349.14 286.55 352.28 282.78 355.80 280.25
  c 360.74 276.68 363.82 281.80 366.70 284.71
  q 374.15 292.23 381.62 299.45
  a 4.22 4.22 0.0 0 1 381.61 305.52
  l 371.29 315.44
  a 1.73 1.73 0.0 0 0 371.00 317.57
  q 374.97 324.23 376.55 331.47
  c 376.98 333.42 378.86 334.21 380.84 334.22
  q 386.02 334.24 391.18 334.27
  c 395.04 334.29 397.76 335.91 397.83 339.94
  q 398.05 352.17 397.83 363.40
  a 4.80 4.79 -88.9 0 1 392.95 368.10
  q 386.70 368.00 380.17 368.15
  c 377.73 368.20 376.87 369.43 376.17 371.72
  q 374.05 378.65 371.02 384.80
  a 1.29 1.28 -54.3 0 0 371.25 386.25
  q 376.10 391.25 380.87 395.61
  c 386.77 401.00 378.26 405.42 375.04 408.56
  q 370.59 412.91 362.93 421.17
  c 360.29 424.02 357.34 422.84 354.95 420.25
  q 350.57 415.52 346.07 410.94
  a 1.00 0.98 52.7 0 0 344.87 410.77
  q 336.95 415.28 327.94 417.41
  q 326.05 417.86 326.00 419.75
  q 325.82 426.03 325.74 432.03
  a 4.74 4.74 0.0 0 1 321.01 436.71
  l 296.45 436.75
  a 4.96 4.96 0.0 0 1 291.48 431.70
  l 291.67 420.00
  a 2.45 2.45 0.0 0 0 289.94 417.62
  q 281.33 414.99 273.31 410.89
  a 2.01 2.00 34.5 0 0 270.90 411.33
  q 266.30 416.42 261.87 421.12
  c 258.99 424.18 256.33 422.73 253.76 420.13
  q 245.64 411.93 237.43 403.83
  c 234.32 400.77 234.33 398.53 237.34 395.28
  q 241.61 390.68 246.04 386.34
  a 1.59 1.58 55.0 0 0 246.36 384.50
  q 243.00 377.62 240.77 369.99
  q 240.18 367.96 237.32 367.99
  q 230.67 368.04 224.81 368.08
  a 4.73 4.73 0.0 0 1 220.04 363.35
  q 220.06 351.98 220.08 339.99
  c 220.09 335.42 223.39 334.29 227.52 334.27
  q 232.74 334.25 237.94 334.24
  a 3.06 3.06 0.0 0 0 240.94 331.78
  q 241.45 329.19 242.23 326.54
  c 243.22 323.18 245.23 319.95 246.76 316.61
  z
  m 344.33 349.90
  a 35.43 35.43 0.0 0 0 308.90 314.47
  a 35.43 35.43 0.0 0 0 273.47 349.90
  a 35.43 35.43 0.0 0 0 308.90 385.33
  a 35.43 35.43 0.0 0 0 344.33 349.90
  z"
/>
</svg>
