<?xml version="1.0" encoding="UTF-8" standalone="no"?>
<!DOCTYPE svg PUBLIC "-//W3C//DTD SVG 1.1//EN" "http://www.w3.org/Graphics/SVG/1.1/DTD/svg11.dtd">
<svg xmlns="http://www.w3.org/2000/svg" version="1.1" viewBox="0.00 0.00 1024.00 1024.00">
<g fill="#ffffffc7">
<path d="
  M 762.20 324.70
  C 769.95 325.14 779.06 324.33 785.57 325.70
  C 800.93 328.93 812.63 341.27 816.11 356.54
  C 816.82 359.69 817.18 365.48 817.17 373.92
  C 817.09 500.41 817.07 626.89 817.10 753.38
  C 817.10 761.63 816.61 767.49 815.62 770.98
  C 811.63 785.14 796.83 799.84 781.35 800.01
  C 742.90 800.44 704.45 800.36 666.00 800.33
  C 528.33 800.24 390.67 800.23 253.00 800.31
  C 233.53 800.32 216.36 781.42 216.20 762.25
  C 215.81 716.84 215.74 671.42 215.98 626.00
  C 216.17 589.51 216.08 503.79 215.72 368.86
  C 215.71 363.46 216.02 359.24 216.66 356.21
  C 220.53 338.00 235.87 325.78 254.01 325.02
  C 257.92 324.86 267.60 324.77 283.05 324.74
  C 283.45 324.74 283.65 324.54 283.66 324.14
  C 283.72 320.86 283.38 317.19 284.36 314.33
  C 286.04 309.39 289.87 306.34 295.04 305.30
  C 296.00 305.11 296.83 304.88 297.54 304.62
  C 312.07 304.64 326.39 304.63 340.50 304.60
  C 347.40 304.59 353.68 306.02 356.63 312.86
  C 358.01 316.07 357.70 320.53 357.72 324.28
  C 357.73 324.64 357.91 324.82 358.26 324.81
  L 400.72 324.80
  C 400.89 324.80 401.02 324.67 401.02 324.51
  C 400.99 311.42 401.06 298.31 401.21 285.18
  C 401.28 278.67 401.80 273.60 402.77 269.95
  C 408.78 247.24 428.57 232.10 452.26 232.09
  C 496.50 232.06 540.75 232.07 585.00 232.11
  C 610.40 232.13 632.80 255.43 632.92 280.50
  C 632.99 294.87 633.06 309.43 633.12 324.18
  C 633.12 324.55 633.42 324.85 633.79 324.85
  L 674.04 324.97
  C 674.45 324.98 674.67 324.77 674.69 324.35
  C 674.83 320.61 674.27 316.56 675.50 313.27
  C 677.65 307.52 681.99 304.62 688.50 304.57
  C 709.09 304.42 723.58 304.44 731.99 304.63
  C 738.64 304.78 743.10 307.67 745.39 313.30
  C 746.69 316.52 746.39 320.66 746.26 324.22
  C 746.25 324.51 746.48 324.75 746.77 324.74
  L 762.20 324.70
  Z
  M 596.57 277.86
  C 593.45 269.51 585.52 264.86 576.50 264.84
  C 537.75 264.79 499.00 264.77 460.25 264.80
  C 444.91 264.81 436.26 274.49 436.25 289.50
  C 436.25 301.19 436.25 312.87 436.26 324.53
  C 436.26 324.71 436.41 324.86 436.59 324.86
  L 597.61 324.93
  C 597.92 324.93 598.17 324.68 598.17 324.37
  C 598.04 313.88 597.98 303.36 597.98 292.79
  C 597.98 285.36 597.51 280.38 596.57 277.86
  Z
  M 408.02 394.98
  C 394.26 397.80 385.27 409.27 385.27 423.25
  C 385.28 518.50 385.24 613.75 385.15 709.00
  C 385.13 721.00 392.55 731.46 403.84 734.79
  C 406.73 735.64 412.38 736.05 420.79 736.03
  C 487.19 735.85 553.59 735.81 620.00 735.91
  C 624.49 735.92 627.99 735.62 630.51 734.99
  C 640.56 732.50 649.79 722.07 649.84 711.50
  C 650.19 646.31 650.18 551.16 649.82 426.05
  C 649.81 421.09 649.49 417.42 648.87 415.04
  C 646.36 405.46 638.17 397.76 628.82 395.18
  C 625.85 394.36 620.11 393.95 611.58 393.95
  C 547.55 393.97 483.53 393.93 419.50 393.83
  C 415.61 393.82 411.79 394.21 408.02 394.98
  Z"
/>
<circle cx="517.31" cy="522.34" r="31.56"/>
<path d="
  M 472.00 571.07
  C 479.67 568.08 488.42 565.56 498.26 563.51
  C 499.65 563.22 500.88 563.29 501.97 563.72
  C 502.36 563.87 502.61 564.15 502.72 564.55
  L 513.07 599.23
  C 513.51 600.72 512.40 602.23 510.84 602.23
  L 457.97 602.30
  C 456.92 602.30 456.05 601.46 456.02 600.41
  C 455.56 587.50 459.13 576.09 472.00 571.07
  Z"
/>
<path d="
  M 563.06 570.67
  C 575.06 575.21 579.71 588.44 578.81 600.35
  C 578.73 601.43 577.83 602.26 576.75 602.26
  L 523.51 602.31
  C 522.60 602.31 521.81 601.66 521.64 600.77
  C 521.43 599.66 521.48 598.55 521.81 597.44
  C 524.93 586.81 527.98 576.16 530.95 565.49
  C 531.38 563.96 532.39 563.23 533.99 563.30
  C 543.38 563.69 555.05 567.64 563.06 570.67
  Z"
/>
<rect x="416.57" y="625.19" width="201.50" height="21.76" rx="10.74"/>
<rect x="416.76" y="668.81" width="201.32" height="21.82" rx="10.73"/>
</g>
</svg>
