<svg version="1.1" viewBox="0.00 0.00 1024.00 1024.00" xmlns="http://www.w3.org/2000/svg">
  <defs></defs>
  <g fill="#ffffffc7">
    <path d="
  M 569.49 206.96
  C 571.80 205.05 574.04 202.86 576.35 201.19
  C 583.15 196.28 589.96 191.39 596.79 186.52
  C 598.02 185.64 599.11 184.61 600.06 183.44
  C 600.22 183.24 600.31 182.99 600.31 182.73
  L 600.25 129.77
  C 600.25 129.46 600.59 129.28 600.85 129.45
  L 635.89 152.78
  C 636.45 153.15 636.78 153.77 636.78 154.44
  L 636.71 356.03
  C 636.71 356.32 636.44 356.53 636.16 356.46
  C 615.69 351.55 593.48 353.62 575.30 364.68
  C 574.97 364.88 574.55 364.64 574.55 364.25
  C 574.73 339.23 574.73 314.23 574.55 289.24
  C 574.51 283.95 574.00 280.02 573.03 277.45
  C 568.77 266.17 558.86 263.70 547.23 260.08
  C 532.59 255.51 519.50 241.33 512.48 228.00
  C 498.80 202.02 501.93 165.98 520.89 143.32
  C 525.44 137.88 531.24 133.09 537.14 128.89
  C 537.32 128.76 537.56 128.89 537.56 129.10
  L 537.53 183.00
  C 537.53 183.34 537.68 183.65 537.93 183.87
  C 547.84 192.02 558.41 199.29 568.68 206.98
  C 568.95 207.19 569.22 207.18 569.49 206.96
  Z"></path>
    <path d="
  M 478.46 296.46
  L 486.70 286.97
  C 487.06 286.55 487.69 286.52 488.09 286.89
  L 498.80 296.84
  C 498.94 296.97 498.95 297.20 498.82 297.34
  L 490.18 306.52
  C 490.01 306.69 490.02 306.96 490.19 307.13
  L 499.49 316.21
  C 499.66 316.38 499.94 316.37 500.10 316.19
  L 509.01 306.25
  C 509.15 306.10 509.29 306.09 509.44 306.24
  L 519.80 316.05
  C 520.01 316.24 520.02 316.45 519.84 316.66
  L 512.11 325.81
  C 511.88 326.08 511.89 326.33 512.14 326.57
  L 520.91 335.19
  C 521.22 335.50 521.72 335.48 522.01 335.15
  L 529.63 326.45
  C 529.80 326.26 530.09 326.23 530.28 326.40
  L 541.75 336.27
  C 542.38 336.82 542.41 337.39 541.82 337.98
  C 527.19 352.82 513.48 366.80 500.69 379.93
  C 499.94 380.70 499.26 381.45 498.67 382.18
  C 498.40 382.50 498.12 382.52 497.81 382.25
  C 471.24 358.83 444.38 335.58 418.15 311.70
  C 393.89 289.61 369.55 267.61 345.13 245.70
  C 335.24 236.83 325.80 226.78 317.85 216.11
  C 307.10 201.70 296.75 184.84 291.15 167.67
  C 291.03 167.29 291.35 166.92 291.74 166.99
  C 300.05 168.44 308.35 170.11 316.64 172.00
  C 329.46 174.93 340.71 177.04 352.76 179.55
  C 356.38 180.30 359.96 181.22 363.49 182.30
  C 375.39 185.92 386.59 193.41 395.68 201.82
  C 408.43 213.61 421.17 225.31 433.91 236.93
  C 434.11 237.11 434.12 237.30 433.94 237.49
  L 425.54 246.57
  C 425.36 246.76 425.37 247.06 425.56 247.24
  L 434.88 255.90
  C 435.16 256.17 435.61 256.13 435.87 255.83
  L 443.53 246.64
  C 443.67 246.48 443.92 246.46 444.08 246.60
  L 455.15 256.18
  C 455.55 256.53 455.58 256.90 455.23 257.29
  L 447.07 266.66
  C 446.75 267.02 446.79 267.58 447.15 267.90
  L 456.32 275.96
  C 456.62 276.22 456.90 276.20 457.17 275.90
  L 465.04 266.79
  C 465.55 266.20 466.45 266.16 467.01 266.70
  L 476.92 276.25
  C 477.12 276.44 477.13 276.64 476.94 276.85
  L 468.06 286.67
  C 467.81 286.94 467.84 287.19 468.15 287.40
  C 471.62 289.75 474.63 293.51 477.63 296.49
  C 477.92 296.78 478.19 296.77 478.46 296.46
  Z
  M 400.1952 224.7684
  C 400.35 224.59 400.34 224.32 400.1613 224.1613
  L 364.6170 192.3810
  C 364.44 192.22 364.17 192.24 364.0098 192.4149
  L 356.1448 201.2116
  C 355.99 201.39 356.00 201.66 356.1787 201.8187
  L 391.7230 233.5990
  C 391.90 233.76 392.17 233.74 392.3302 233.5651
  L 400.1952 224.7684
  Z"></path>
    <path d="
  M 812.46 494.09
  L 767.45 501.92
  C 766.36 502.11 766.07 502.69 766.57 503.67
  L 777.40 525.11
  C 777.75 525.80 777.61 526.63 777.07 527.17
  L 759.48 544.81
  C 759.19 545.09 759.25 545.57 759.60 545.78
  L 800.19 569.66
  C 800.88 570.07 801.38 569.90 801.68 569.15
  L 810.48 547.34
  C 810.63 546.97 811.02 546.76 811.41 546.84
  L 855.30 555.45
  C 855.69 555.53 855.86 555.99 855.61 556.29
  C 855.28 556.69 854.87 557.13 854.38 557.62
  C 833.69 577.99 803.97 586.10 776.51 575.96
  C 764.08 571.37 754.34 563.12 747.28 551.20
  C 747.13 550.95 746.92 550.80 746.65 550.75
  L 644.89 529.73
  C 644.55 529.66 644.26 529.75 644.01 529.98
  L 611.15 561.76
  C 610.78 562.12 610.89 562.75 611.37 562.95
  C 644.07 577.14 680.46 590.04 701.74 598.49
  C 716.84 604.49 731.97 610.40 747.14 616.23
  C 761.90 621.89 776.54 628.14 789.04 634.41
  C 806.01 642.94 823.03 655.83 839.00 667.53
  C 840.58 668.68 842.04 669.87 843.37 671.10
  C 843.82 671.51 843.75 671.78 843.16 671.92
  C 839.73 672.73 836.17 673.57 832.48 674.42
  C 811.82 679.20 789.22 680.59 768.41 676.09
  C 763.46 675.02 758.19 674.09 753.59 672.62
  C 745.53 670.05 737.77 666.74 730.30 662.70
  C 711.37 652.47 692.41 642.29 673.41 632.16
  C 673.11 632.00 672.79 631.95 672.45 632.00
  C 668.88 632.54 660.50 635.48 657.58 634.18
  C 651.46 631.44 645.24 628.37 639.30 625.86
  C 619.76 617.61 600.25 609.30 580.76 600.92
  C 578.37 599.89 576.05 598.97 573.79 598.14
  C 573.39 598.00 572.95 598.10 572.64 598.39
  L 560.98 609.71
  C 560.62 610.06 560.52 610.60 560.72 611.06
  C 571.99 636.49 583.36 661.65 594.83 686.53
  C 596.97 691.17 598.70 694.30 600.01 695.93
  C 602.92 699.52 608.09 702.96 612.60 704.33
  C 613.81 704.70 614.11 706.28 613.12 707.07
  C 610.58 709.11 609.19 711.58 608.96 714.48
  C 608.42 721.12 616.40 720.56 620.55 720.65
  C 621.57 720.68 622.40 721.47 622.48 722.48
  C 622.87 727.32 616.79 728.94 617.06 732.92
  C 617.29 736.29 621.80 737.34 624.47 737.48
  C 625.57 737.53 626.08 738.86 625.31 739.65
  C 623.40 741.58 619.04 747.59 621.41 750.35
  C 625.24 754.80 629.51 754.75 634.92 754.75
  C 636.00 754.75 636.36 755.26 636.00 756.27
  C 635.02 759.08 633.57 761.64 631.66 763.95
  C 628.56 767.69 633.84 771.15 637.03 771.84
  C 638.78 772.21 640.50 772.49 642.19 772.66
  C 642.55 772.70 642.89 772.84 643.17 773.07
  C 646.63 775.89 637.99 781.06 639.35 784.73
  C 640.12 786.80 643.16 787.83 645.12 787.74
  C 646.05 787.69 646.59 788.78 645.98 789.49
  C 644.06 791.71 641.18 794.62 641.19 797.46
  C 641.22 804.38 650.93 804.68 655.45 804.41
  C 655.74 804.39 655.92 804.52 656.01 804.79
  C 657.94 810.98 652.12 812.49 653.15 816.76
  C 653.69 818.99 655.27 820.12 657.89 820.16
  C 658.22 820.17 658.45 820.32 658.59 820.61
  L 690.14 885.99
  C 690.37 886.48 690.26 886.58 689.80 886.30
  C 669.69 873.81 649.80 861.01 630.13 847.90
  C 623.62 843.57 618.26 838.26 614.04 831.99
  C 612.55 829.77 609.48 823.86 604.82 814.25
  C 597.83 799.82 590.87 785.37 583.93 770.92
  C 570.20 742.31 556.45 713.71 542.70 685.10
  C 536.70 672.61 530.30 660.09 523.49 647.54
  C 523.33 647.25 522.94 647.19 522.70 647.42
  L 511.54 658.07
  C 511.35 658.25 511.25 658.49 511.25 658.75
  C 511.29 724.17 511.31 789.59 511.30 855.00
  C 511.30 872.37 501.75 886.71 485.54 891.83
  C 471.11 896.38 454.77 892.52 444.79 881.04
  C 439.00 874.39 435.11 865.99 435.09 857.00
  C 435.00 818.53 434.98 780.06 435.02 741.59
  C 435.03 739.89 434.71 738.04 434.78 736.29
  C 434.81 735.54 433.95 735.11 433.36 735.57
  C 430.38 737.92 427.49 740.30 424.70 742.71
  C 403.58 760.96 377.86 763.09 351.53 757.10
  C 350.67 756.90 349.76 757.16 349.13 757.79
  L 234.71 871.51
  C 233.72 872.50 233.38 872.31 233.67 870.94
  L 254.47 775.01
  C 254.63 774.25 255.02 773.56 255.57 773.02
  L 280.73 748.36
  C 280.91 748.19 281.09 748.18 281.27 748.35
  L 301.25 766.90
  C 301.68 767.31 302.11 767.30 302.52 766.87
  L 321.41 747.54
  C 321.79 747.16 321.74 746.53 321.31 746.19
  C 313.15 739.90 305.92 732.68 299.63 724.52
  C 299.40 724.22 299.10 724.08 298.73 724.09
  C 296.10 724.18 294.10 724.31 292.75 724.50
  C 281.04 726.06 269.21 727.46 257.63 729.18
  C 231.92 733.01 215.21 735.19 207.50 735.72
  C 198.32 736.35 188.65 737.46 179.92 737.49
  C 175.64 737.50 171.38 737.40 167.15 737.21
  C 166.68 737.19 166.64 737.04 167.01 736.76
  C 179.78 727.27 192.97 718.31 206.60 709.86
  C 221.12 700.87 236.41 693.45 252.47 687.60
  C 266.51 682.49 280.74 677.65 295.17 673.06
  C 295.57 672.93 295.77 673.08 295.76 673.49
  C 295.24 705.57 316.21 733.42 346.42 743.37
  C 375.07 752.81 405.89 746.79 427.62 725.62
  C 441.10 712.48 454.05 698.79 467.66 685.80
  C 483.42 670.76 501.91 651.99 512.96 641.21
  C 532.52 622.17 547.77 606.75 564.41 590.78
  C 580.64 575.19 596.72 559.44 612.64 543.52
  C 622.73 533.44 634.17 522.75 644.70 512.08
  C 648.74 507.99 653.50 503.33 658.98 498.10
  C 669.34 488.24 679.02 478.91 685.17 466.45
  C 695.76 445.04 695.62 415.82 683.80 394.93
  C 677.79 384.30 669.69 375.43 659.50 368.32
  C 659.27 368.17 659.26 367.99 659.45 367.79
  L 716.79 308.66
  C 717.09 308.35 717.25 307.92 717.23 307.49
  C 716.87 299.79 718.05 291.61 719.94 284.24
  C 725.15 263.82 741.12 246.74 759.72 237.51
  C 769.33 232.74 781.88 228.28 792.50 227.88
  C 793.65 227.83 793.85 228.25 793.10 229.12
  C 778.85 245.73 764.26 262.06 749.35 278.09
  C 749.22 278.24 749.23 278.47 749.37 278.60
  L 767.63 295.74
  C 768.16 296.24 768.17 296.75 767.66 297.28
  L 688.80 377.45
  C 688.59 377.67 688.58 377.90 688.78 378.13
  L 696.76 387.39
  C 696.96 387.63 697.33 387.64 697.54 387.41
  L 778.05 305.63
  C 778.26 305.42 778.62 305.42 778.83 305.64
  L 788.11 315.16
  C 788.33 315.39 788.70 315.38 788.90 315.14
  L 832.88 265.07
  C 833.03 264.90 833.32 264.99 833.33 265.22
  C 835.27 299.41 819.18 338.20 784.74 350.95
  C 783.30 351.48 780.41 352.38 776.06 353.66
  C 774.69 354.06 773.51 354.75 772.51 355.74
  C 763.62 364.49 754.81 373.30 746.08 382.18
  C 732.59 395.91 718.63 408.85 705.71 423.01
  C 705.48 423.26 705.38 423.55 705.39 423.89
  C 706.00 435.79 704.87 446.58 702.00 456.26
  C 701.49 457.98 700.00 461.79 697.51 467.69
  C 696.52 470.05 694.66 472.59 693.70 475.38
  C 693.56 475.78 693.81 476.21 694.23 476.29
  L 761.74 489.16
  C 762.24 489.26 762.76 489.13 763.16 488.81
  C 774.53 479.68 791.03 478.24 805.25 480.10
  C 826.70 482.91 847.24 500.51 858.48 518.08
  C 860.13 520.65 861.40 523.10 862.30 525.43
  C 862.63 526.28 862.34 526.61 861.45 526.44
  L 819.67 518.25
  C 819.32 518.18 819.10 517.98 819.01 517.64
  L 813.07 494.49
  C 812.99 494.16 812.79 494.03 812.46 494.09
  Z
  M 710.5121 512.4825
  C 712.09 505.37 707.51 498.30 700.2770 496.6929
  C 693.05 495.09 685.91 499.56 684.3279 506.6775
  C 682.75 513.79 687.33 520.86 694.5630 522.4671
  C 701.79 524.07 708.93 519.60 710.5121 512.4825
  Z
  M 776.65 653.26
  C 768.50 649.93 760.16 647.24 751.61 645.19
  C 743.29 643.19 727.94 639.78 716.03 637.64
  C 715.70 637.59 715.61 637.71 715.76 638.00
  C 716.19 638.83 716.60 639.41 717.01 639.76
  C 734.85 654.92 751.72 666.05 776.00 667.00
  C 786.81 667.42 797.12 667.14 806.93 666.17
  C 808.79 665.99 808.84 665.58 807.08 664.95
  C 796.87 661.27 786.74 657.38 776.65 653.26
  Z
  M 487.9754 731.6670
  C 492.87 723.69 490.27 713.19 482.1664 708.2277
  C 474.07 703.26 463.54 705.71 458.6446 713.6930
  C 453.75 721.67 456.35 732.17 464.4536 737.1323
  C 472.55 742.10 483.08 739.65 487.9754 731.6670
  Z
  M 483.0348 796.4843
  C 490.82 791.12 492.71 780.35 487.2521 772.4485
  C 481.80 764.54 471.07 762.49 463.2852 767.8557
  C 455.50 773.22 453.61 783.99 459.0679 791.8915
  C 464.52 799.80 475.25 801.85 483.0348 796.4843
  Z
  M 270.56 782.69
  C 268.92 778.96 267.52 775.22 266.37 771.45
  C 266.26 771.08 265.79 770.97 265.52 771.25
  L 257.19 779.71
  C 256.77 780.14 256.62 780.64 256.73 781.22
  L 265.52 826.56
  C 265.62 827.10 266.29 827.30 266.66 826.90
  L 280.90 811.67
  C 281.16 811.40 281.23 811.08 281.12 810.72
  C 278.10 801.19 274.58 791.84 270.56 782.69
  Z
  M 490.4074 845.6171
  C 491.56 836.37 484.81 827.91 475.3364 826.7294
  C 465.86 825.55 457.24 832.09 456.0926 841.3429
  C 454.94 850.59 461.69 859.05 471.1636 860.2306
  C 480.64 861.41 489.26 854.87 490.4074 845.6171
  Z"></path>
    <path d="
  M 259.52 264.82
  L 283.86 279.86
  C 284.02 279.96 284.06 280.17 283.96 280.32
  L 271.62 298.06
  C 271.52 298.20 271.32 298.24 271.18 298.14
  L 246.72 281.42
  C 246.57 281.32 246.54 281.11 246.65 280.96
  L 259.10 264.90
  C 259.20 264.77 259.39 264.74 259.52 264.82
  Z"></path>
    <path d="
  M 295.67 311.34
  C 291.14 308.40 286.72 305.33 282.42 302.13
  C 282.11 301.90 282.04 301.45 282.28 301.14
  L 289.66 291.53
  C 290.10 290.96 290.93 290.89 291.46 291.37
  C 292.84 292.64 294.42 293.84 296.21 294.99
  C 317.14 308.38 337.80 322.18 358.77 335.50
  C 364.00 338.83 369.08 342.31 373.99 345.96
  C 374.19 346.11 374.25 346.40 374.11 346.61
  L 367.07 357.75
  C 366.90 358.03 366.69 358.06 366.44 357.84
  C 365.54 357.01 364.49 356.23 363.30 355.52
  C 340.31 341.61 318.23 325.97 295.67 311.34
  Z"></path>
    <path d="
  M 395.65 339.08
  L 516.54 417.77
  C 517.20 418.20 517.27 419.13 516.70 419.66
  C 504.69 430.81 493.03 442.31 481.70 454.16
  C 481.45 454.42 481.05 454.46 480.76 454.26
  L 369.24 378.54
  C 368.34 377.93 368.19 377.17 368.79 376.26
  L 393.61 338.60
  C 393.85 338.23 394.17 338.13 394.58 338.28
  C 394.82 338.37 395.02 338.50 395.19 338.69
  C 395.33 338.84 395.48 338.97 395.65 339.08
  Z
  M 478.7394 424.7862
  C 483.14 419.50 482.30 411.55 476.8594 407.0149
  C 471.42 402.48 463.44 403.09 459.0406 408.3738
  C 454.64 413.66 455.48 421.61 460.9206 426.1451
  C 466.36 430.68 474.34 430.07 478.7394 424.7862
  Z"></path>
    <path d="
  M 527.28 408.24
  C 527.03 408.50 526.77 408.51 526.50 408.26
  L 508.49 391.87
  C 508.40 391.79 508.40 391.66 508.48 391.58
  L 548.14 351.34
  C 548.44 351.03 548.93 351.01 549.26 351.30
  L 567.88 367.90
  C 568.01 368.01 568.01 368.22 567.88 368.34
  C 562.02 373.83 555.91 379.28 550.35 384.89
  C 542.79 392.51 535.10 400.29 527.28 408.24
  Z"></path>
    <path d="
  M 387.79 730.23
  C 352.04 737.96 319.18 717.99 311.56 681.64
  C 307.88 664.10 312.21 646.51 322.80 632.20
  C 324.83 629.47 328.75 625.27 334.56 619.60
  C 375.75 579.40 416.65 538.93 457.55 498.45
  C 480.13 476.11 503.42 453.83 519.45 437.70
  C 540.95 416.07 558.25 399.03 571.35 386.60
  C 576.98 381.25 583.85 377.11 591.97 374.16
  C 617.46 364.91 646.00 372.44 663.24 393.33
  C 680.44 414.15 681.40 447.96 665.04 469.78
  C 662.21 473.55 658.82 477.40 654.86 481.34
  C 607.67 528.25 561.88 571.68 515.96 617.34
  C 479.91 653.19 446.84 685.66 416.75 714.76
  C 408.66 722.58 399.03 727.80 387.79 730.23
  Z"></path>
    <path d="
  M 322.93 607.14
  C 324.09 602.95 322.46 598.06 319.67 595.08
  C 313.85 588.85 303.11 591.09 299.92 598.70
  C 296.84 606.04 300.63 615.04 309.23 615.49
  C 312.00 615.64 314.32 615.31 316.17 614.50
  C 318.10 613.66 318.35 614.01 316.92 615.55
  C 310.02 622.97 304.64 630.14 300.30 639.44
  C 300.14 639.79 299.63 639.78 299.48 639.42
  C 298.41 636.94 297.40 634.37 296.44 631.70
  C 279.87 585.58 259.59 540.94 241.16 495.56
  C 227.55 462.05 213.76 428.62 199.81 395.27
  C 199.72 395.06 199.78 394.92 199.99 394.84
  C 200.22 394.75 200.50 394.74 200.83 394.82
  C 218.76 399.11 234.63 407.52 248.46 420.05
  C 262.81 433.06 272.17 449.76 279.01 467.51
  C 283.90 480.23 289.02 492.86 294.35 505.41
  C 296.47 510.41 298.42 515.89 300.38 520.50
  C 308.47 539.56 316.40 558.69 324.17 577.88
  C 324.30 578.19 324.50 578.45 324.77 578.64
  L 342.60 590.97
  C 342.66 591.01 342.66 591.06 342.61 591.11
  L 323.63 608.42
  C 323.37 608.65 322.96 608.52 322.89 608.18
  C 322.82 607.86 322.83 607.51 322.93 607.14
  Z"></path>
    <path d="
  M 245.87 536.21
  C 258.24 565.55 271.44 594.81 282.29 624.86
  C 282.43 625.25 282.30 625.43 281.89 625.42
  C 281.80 625.41 281.63 625.31 281.40 625.10
  C 258.28 604.59 235.09 584.13 211.41 564.26
  C 202.84 557.08 194.39 549.77 186.05 542.32
  C 177.47 534.66 172.54 530.18 171.25 528.87
  C 156.77 514.14 146.01 492.82 146.03 471.75
  C 146.04 465.12 146.34 458.52 146.94 451.96
  C 146.98 451.52 147.17 451.44 147.51 451.73
  L 245.29 535.41
  C 245.54 535.63 245.74 535.90 245.87 536.21
  Z"></path>
    <path d="
  M 579.41 621.57
  C 577.95 618.73 576.68 615.66 575.61 612.36
  C 575.18 611.03 575.51 610.81 576.60 611.68
  C 580.57 614.88 584.71 618.40 589.00 622.25
  C 608.88 640.10 628.87 657.83 648.97 675.43
  C 660.74 685.74 672.98 697.01 685.16 707.61
  C 695.26 716.40 705.17 725.37 714.89 734.54
  C 715.06 734.71 715.07 734.98 714.90 735.15
  L 705.14 745.44
  C 704.61 745.99 704.06 746.02 703.47 745.54
  C 697.40 740.59 691.31 735.35 685.20 729.81
  C 659.44 706.43 633.14 683.67 607.33 660.35
  C 603.07 656.51 598.81 653.13 594.42 649.86
  C 593.32 649.04 592.43 647.96 591.83 646.71
  C 587.82 638.30 583.68 629.92 579.41 621.57
  Z"></path>
    <path d="
  M 766.41 803.16
  C 763.49 806.03 761.00 806.87 756.59 806.29
  C 753.78 805.93 751.44 803.81 749.63 802.12
  C 735.36 788.79 721.05 775.50 706.71 762.24
  C 706.48 762.03 706.47 761.80 706.69 761.57
  L 732.57 733.75
  C 732.77 733.53 733.11 733.52 733.33 733.72
  C 747.91 746.78 762.41 759.92 776.87 773.12
  C 781.70 777.53 783.46 784.64 778.81 790.07
  C 775.72 793.68 771.59 798.04 766.41 803.16
  Z"></path>
  </g>
</svg>