<svg version="1.1" viewBox="200 200 600 600" xmlns="http://www.w3.org/2000/svg">
  <defs></defs>
  <g fill="#ffffffc7" transform="matrix(1, 0, 0, 1, -8.379974, -13.088958)">
    <path d="
  M 633.45 309.65
  C 654.32 317.92 675.21 326.18 696.10 334.41
  C 711.69 340.56 722.80 350.83 729.41 365.22
  C 731.15 369.01 733.10 375.37 735.27 384.29
  C 738.22 396.44 741.14 408.59 744.03 420.74
  C 759.87 487.45 776.33 554.04 791.63 620.89
  C 793.56 629.30 794.59 635.76 794.73 640.28
  C 796.05 681.43 769.55 719.59 726.77 722.63
  C 711.23 723.74 697.48 720.21 685.52 712.04
  C 681.97 709.61 677.06 705.12 670.79 698.58
  C 630.52 656.55 603.93 628.76 591.02 615.23
  C 588.42 612.51 586.29 611.24 582.28 611.23
  C 531.83 611.14 481.38 611.15 430.93 611.24
  C 428.26 611.25 426.77 612.26 425.07 614.08
  C 410.03 630.24 394.87 646.28 379.59 662.21
  C 366.13 676.23 353.09 690.77 339.54 704.79
  C 325.17 719.66 304.78 724.82 284.54 722.12
  C 243.35 716.17 218.88 676.37 222.30 637.00
  C 222.79 631.33 223.87 624.92 225.54 617.75
  C 244.22 537.53 263.19 457.38 282.28 377.26
  C 285.86 362.25 294.97 348.22 307.74 340.01
  C 310.98 337.92 317.01 335.11 325.83 331.57
  C 341.46 325.30 357.12 319.04 372.80 312.79
  C 383.39 308.42 390.62 305.56 394.49 304.21
  C 399.11 302.59 403.28 303.43 407.01 306.73
  C 414.63 313.46 422.21 320.21 429.76 326.99
  C 431.33 328.39 433.00 329.73 435.39 329.73
  C 484.40 329.76 533.26 329.76 581.95 329.72
  C 582.63 329.72 583.29 329.49 583.81 329.06
  C 585.80 327.44 587.80 325.69 589.81 323.80
  C 595.87 318.11 602.04 312.54 608.33 307.09
  C 611.74 304.14 615.12 302.29 619.54 304.01
  C 624.21 305.83 628.84 307.71 633.45 309.65
  Z
  M 483.51 359.69
  C 492.10 359.35 499.73 363.00 507.00 367.24
  C 507.94 367.79 509.11 367.75 510.01 367.13
  C 517.00 362.33 524.75 359.85 533.28 359.68
  C 534.49 359.65 534.57 359.34 533.52 358.74
  C 517.64 349.63 498.82 348.99 483.26 358.89
  C 482.35 359.47 482.44 359.74 483.51 359.69
  Z
  M 647.8453 399.8131
  C 656.92 402.50 666.49 397.21 669.2242 387.9880
  C 671.96 378.77 666.81 369.12 657.7347 366.4269
  C 648.66 363.74 639.09 369.03 636.3558 378.2520
  C 633.62 387.47 638.77 397.12 647.8453 399.8131
  Z
  M 472.87 427.60
  C 473.28 410.93 483.56 395.35 494.06 383.04
  C 494.54 382.48 494.51 381.65 494.00 381.12
  C 488.36 375.27 482.96 370.59 475.71 366.95
  C 475.08 366.64 474.33 366.78 473.87 367.30
  C 459.04 384.11 457.93 410.06 471.91 427.91
  C 472.52 428.70 472.84 428.59 472.87 427.60
  Z
  M 544.57 427.60
  C 558.22 411.62 558.30 382.74 542.67 367.45
  C 542.07 366.87 541.17 366.72 540.43 367.09
  C 533.40 370.56 527.30 375.24 522.13 381.13
  C 521.92 381.37 521.90 381.73 522.08 381.99
  C 525.67 387.23 529.79 392.50 532.98 397.56
  C 538.92 406.94 544.17 415.83 543.60 427.21
  C 543.54 428.30 543.86 428.43 544.57 427.60
  Z
  M 403.67 417.62
  C 403.67 393.95 384.49 374.77 360.82 374.77
  C 337.15 374.77 317.97 393.95 317.97 417.62
  C 317.97 441.29 337.15 460.47 360.82 460.47
  C 384.49 460.47 403.67 441.29 403.67 417.62
  Z
  M 485.25 416.96
  C 482.52 420.58 474.01 430.70 479.20 434.81
  C 493.93 446.52 515.46 447.41 531.82 438.11
  C 534.29 436.70 536.48 434.96 538.40 432.89
  C 538.92 432.33 539.13 431.55 538.96 430.81
  C 537.63 424.93 533.01 418.84 529.15 414.34
  C 523.28 407.47 516.95 401.28 510.18 395.75
  C 509.32 395.05 508.09 395.01 507.18 395.65
  C 498.82 401.58 491.51 408.68 485.25 416.96
  Z
  M 709.34 422.22
  C 709.34 412.81 701.71 405.18 692.30 405.18
  C 682.89 405.18 675.26 412.81 675.26 422.22
  C 675.26 431.63 682.89 439.26 692.30 439.26
  C 701.71 439.26 709.34 431.63 709.34 422.22
  Z
  M 626.1503 411.6714
  C 620.40 404.36 609.72 403.16 602.2998 408.9983
  C 594.88 414.84 593.53 425.50 599.2897 432.8086
  C 605.04 440.12 615.72 441.32 623.1402 435.4817
  C 630.56 429.64 631.91 418.98 626.1503 411.6714
  Z
  M 670.31 461.14
  C 670.31 451.72 662.67 444.08 653.25 444.08
  C 643.83 444.08 636.19 451.72 636.19 461.14
  C 636.19 470.56 643.83 478.20 653.25 478.20
  C 662.67 478.20 670.31 470.56 670.31 461.14
  Z
  M 422.16 538.62
  C 422.35 548.53 422.37 554.99 422.23 558.01
  C 421.34 577.06 451.09 576.88 450.40 557.24
  C 450.19 551.04 450.09 544.85 450.10 538.67
  C 450.11 538.31 450.39 538.03 450.75 538.03
  C 457.14 538.02 463.59 538.01 470.10 538.00
  C 475.86 538.00 480.21 537.39 483.41 532.90
  C 485.90 529.41 486.83 525.86 486.22 522.24
  C 484.77 513.68 479.44 509.50 470.23 509.69
  C 463.99 509.82 457.61 509.79 451.10 509.58
  C 450.65 509.56 450.30 509.20 450.29 508.75
  C 450.23 503.74 450.22 498.68 450.25 493.56
  C 450.28 488.72 449.86 485.23 448.97 483.10
  C 444.72 472.86 429.21 471.24 423.86 481.63
  C 422.96 483.38 422.50 485.87 422.47 489.11
  C 422.40 495.68 422.36 502.31 422.35 509.00
  C 422.35 509.42 422.01 509.77 421.59 509.76
  C 415.27 509.73 408.92 509.72 402.54 509.73
  C 396.19 509.75 391.50 511.04 388.39 516.37
  C 382.64 526.23 389.32 538.57 401.25 538.01
  C 404.76 537.84 411.56 537.87 421.64 538.10
  C 421.98 538.11 422.15 538.28 422.16 538.62
  Z
  M 625.63 522.99
  C 625.63 498.47 605.75 478.59 581.23 478.59
  C 556.71 478.59 536.83 498.47 536.83 522.99
  C 536.83 547.51 556.71 567.39 581.23 567.39
  C 605.75 567.39 625.63 547.51 625.63 522.99
  Z"></path>
    <circle cx="361.13" cy="417.59" r="21.56"></circle>
    <circle cx="581.35" cy="522.90" r="23.13"></circle>
  </g>
</svg>